<?xml version="1.0" encoding="UTF-8"?>
<svg width="17px" height="16px" viewBox="0 0 17 16" version="1.1" xmlns="http://www.w3.org/2000/svg" xmlns:xlink="http://www.w3.org/1999/xlink">
    <!-- Generator: sketchtool 50.2 (55047) - http://www.bohemiancoding.com/sketch -->
    <title>E014136C-7840-4FF2-9F55-9CEA3AE123DC</title>
    <desc>Created with sketchtool.</desc>
    <defs></defs>
    <g id="Page-1" stroke="none" stroke-width="1" fill="none" fill-rule="evenodd">
        <g id="Desafio-Front" transform="translate(-1153.000000, -771.000000)" fill="#9B9B9B">
            <g id="footer" transform="translate(374.000000, 750.000000)">
                <g id="Group-3" transform="translate(779.000000, 21.000000)">
                    <path d="M1.23468888,0 C0.553757962,0 0,0.552 0,1.23076923 L0,14.7692308 C0,15.448 0.553757962,16 1.23468888,16 L7.71680549,16 C7.88719255,16 8.02547771,15.8621538 8.02547771,15.6923077 L8.02547771,11.3846154 C8.02547771,11.2147692 7.88719255,11.0769231 7.71680549,11.0769231 L6.48211661,11.0769231 C6.31172954,11.0769231 6.17344439,10.9390769 6.17344439,10.7692308 L6.17344439,8.30769231 C6.17344439,8.13784615 6.31172954,8 6.48211661,8 L7.71680549,8 C7.88719255,8 8.02547771,7.86215385 8.02547771,7.69230769 L8.02547771,6.46153846 C8.02547771,4.59507692 9.54846644,3.07692308 11.4208721,3.07692308 L13.2729054,3.07692308 C13.4432925,3.07692308 13.5815777,3.21476923 13.5815777,3.38461538 L13.5815777,5.84615385 C13.5815777,6.016 13.4432925,6.15384615 13.2729054,6.15384615 L12.0382166,6.15384615 C11.5276727,6.15384615 11.1121999,6.568 11.1121999,7.07692308 L11.1121999,7.69230769 C11.1121999,7.86215385 11.2504851,8 11.4208721,8 L13.2729054,8 C13.361803,8 13.4457619,8.03815385 13.5044096,8.104 C13.5630573,8.17046154 13.5902205,8.25846154 13.5791083,8.34584615 L13.2704361,10.8073846 C13.2512984,10.9612308 13.1191867,11.0769231 12.9642332,11.0769231 L11.4208721,11.0769231 C11.2504851,11.0769231 11.1121999,11.2147692 11.1121999,11.3846154 L11.1121999,15.6923077 C11.1121999,15.8621538 11.2504851,16 11.4208721,16 L14.8162665,16 C15.4971975,16 16.0509554,15.448 16.0509554,14.7692308 L16.0509554,1.23076923 C16.0509554,0.552 15.4971975,0 14.8162665,0 L1.23468888,0 Z" id="Fill-42"></path>
                </g>
            </g>
        </g>
    </g>
</svg>