<?xml version="1.0" encoding="UTF-8"?>
<svg width="16px" height="16px" viewBox="0 0 16 16" version="1.1" xmlns="http://www.w3.org/2000/svg" xmlns:xlink="http://www.w3.org/1999/xlink">
    <!-- Generator: sketchtool 50.2 (55047) - http://www.bohemiancoding.com/sketch -->
    <title>3C0DA8F8-EB4F-4C9B-B0EE-B5CF65A3B99A</title>
    <desc>Created with sketchtool.</desc>
    <defs></defs>
    <g id="Symbols" stroke="none" stroke-width="1" fill="none" fill-rule="evenodd">
        <g id="ic/search/white" transform="translate(-4.000000, -4.000000)">
            <g id="ic_search_24px">
                <path d="M15.0706116,13.7421382 L14.370949,13.7421382 L14.1229673,13.503013 C14.9909032,12.4933732 15.5134361,11.1826128 15.5134361,9.75671804 C15.5134361,6.57723838 12.9361977,4 9.75671804,4 C6.57723838,4 4,6.57723838 4,9.75671804 C4,12.9361977 6.57723838,15.5134361 9.75671804,15.5134361 C11.1826128,15.5134361 12.4933732,14.9909032 13.503013,14.1229673 L13.7421382,14.370949 L13.7421382,15.0706116 L18.1703829,19.4899998 L19.4899998,18.1703829 L15.0706116,13.7421382 Z M9.75671804,13.7421382 C7.55145221,13.7421382 5.77129786,11.9619839 5.77129786,9.75671804 C5.77129786,7.55145221 7.55145221,5.77129786 9.75671804,5.77129786 C11.9619839,5.77129786 13.7421382,7.55145221 13.7421382,9.75671804 C13.7421382,11.9619839 11.9619839,13.7421382 9.75671804,13.7421382 Z" id="Shape" fill="#FFFFFF" fill-rule="nonzero"></path>
                <polygon id="Shape" points="0 0 24 0 24 24 0 24"></polygon>
            </g>
        </g>
    </g>
</svg>