<?xml version="1.0" encoding="UTF-8"?>
<svg width="22px" height="16px" viewBox="0 0 22 16" version="1.1" xmlns="http://www.w3.org/2000/svg" xmlns:xlink="http://www.w3.org/1999/xlink">
    <!-- Generator: sketchtool 50.2 (55047) - http://www.bohemiancoding.com/sketch -->
    <title>A091D308-14DB-4D24-92A1-8E2340592782</title>
    <desc>Created with sketchtool.</desc>
    <defs></defs>
    <g id="Page-1" stroke="none" stroke-width="1" fill="none" fill-rule="evenodd">
        <g id="Desafio-Front" transform="translate(-1287.000000, -771.000000)" fill="#9B9B9B">
            <g id="footer" transform="translate(374.000000, 750.000000)">
                <g id="Group-3" transform="translate(779.000000, 21.000000)">
                    <path d="M149.146995,8.31054545 L142.580695,12.3105455 C142.522328,12.3461818 142.456665,12.3636364 142.390272,12.3636364 C142.328987,12.3636364 142.267701,12.3483636 142.212252,12.3170909 C142.096977,12.2530909 142.025478,12.1316364 142.025478,12 L142.025478,4 C142.025478,3.86909091 142.096977,3.74763636 142.212252,3.68290909 C142.327528,3.61890909 142.468338,3.62109091 142.580695,3.68945455 L149.146995,7.68945455 C149.254974,7.75563636 149.321367,7.87345455 149.321367,8 C149.321367,8.12727273 149.254974,8.24436364 149.146995,8.31054545 M152.876653,0.496 C152.323625,0.450181818 151.786647,0.400727273 151.254047,0.352 C149.289994,0.170909091 147.435379,0 144.943833,0 C142.53692,0 140.518147,0.182545455 138.566497,0.359272727 C138.051407,0.405818182 137.535588,0.452363636 137.011013,0.496 C135.322745,0.637090909 134,2.06909091 134,3.75781818 L134,12.2429091 C134,13.9309091 135.322745,15.3636364 137.011013,15.504 C137.559664,15.5498182 138.092264,15.5985455 138.621946,15.6472727 C140.600591,15.8283636 142.469797,16 144.943833,16 C147.48791,16 149.300208,15.8312727 151.220486,15.6530909 C151.761112,15.6021818 152.308303,15.552 152.876653,15.504 C154.565651,15.3636364 155.887666,13.9309091 155.887666,12.2429091 L155.887666,3.75781818 C155.887666,2.06909091 154.565651,0.637090909 152.876653,0.496" id="Fill-50"></path>
                </g>
            </g>
        </g>
    </g>
</svg>