<?xml version="1.0" encoding="UTF-8"?>
<svg width="21px" height="16px" viewBox="0 0 21 16" version="1.1" xmlns="http://www.w3.org/2000/svg" xmlns:xlink="http://www.w3.org/1999/xlink">
    <!-- Generator: sketchtool 50.2 (55047) - http://www.bohemiancoding.com/sketch -->
    <title>EB8EE31A-F72F-4A5F-8DF4-83CBB4A9EA1B</title>
    <desc>Created with sketchtool.</desc>
    <defs></defs>
    <g id="Page-1" stroke="none" stroke-width="1" fill="none" fill-rule="evenodd">
        <g id="Desafio-Front" transform="translate(-1196.000000, -771.000000)" fill="#9B9B9B">
            <g id="footer" transform="translate(374.000000, 750.000000)">
                <g id="Group-3" transform="translate(779.000000, 21.000000)">
                    <path d="M63.1192387,1.94266667 C63.0189203,1.83066667 62.854398,1.80066667 62.7199712,1.86733333 C62.5628056,1.946 62.2150349,2.05733333 61.8344935,2.154 C62.2203852,1.712 62.5427419,1.17733333 62.6711496,0.705333333 C62.707933,0.57 62.6564362,0.427333333 62.5427419,0.346 C62.4277101,0.264666667 62.275226,0.264 62.1601942,0.342666667 C61.9027101,0.517333333 60.6928693,1.03 59.9424871,1.17866667 C59.0108629,0.364666667 58.0872642,0 56.9677101,0 C56.1390795,0 55.3693024,0.227333333 54.4724553,0.736666667 C52.8740477,1.64466667 52.6319457,3.64266667 52.7697164,4.814 C48.3503534,4.44666667 45.8738247,1.992 44.9990477,0.928666667 C44.9301623,0.845333333 44.8244935,0.798 44.7168184,0.807333333 C44.6084744,0.815333333 44.5108311,0.874 44.4546528,0.966666667 C43.871468,1.92266667 43.7102897,2.99533333 43.9898438,4.068 C44.1650668,4.74066667 44.4927738,5.33266667 44.8619457,5.79533333 C44.593761,5.656 44.3302578,5.47866667 44.1048757,5.3 C44.0045572,5.22 43.8667865,5.206 43.7517547,5.26066667 C43.636054,5.31666667 43.5624871,5.43266667 43.5624871,5.56066667 C43.5624871,7.50066667 44.8746528,8.82466667 46.0055763,9.47866667 C45.7561177,9.43533333 45.4966273,9.36533333 45.2578693,9.29466667 C45.131468,9.25733333 44.9950349,9.29666667 44.9094298,9.396 C44.8231559,9.49466667 44.803761,9.63533333 44.8586018,9.754 C45.551468,11.2433333 46.9519139,12.34 48.5014999,12.6693333 C47.1625827,13.5026667 45.2632196,13.9186667 43.5129967,13.7206667 C43.3564999,13.7053333 43.2053534,13.8 43.1565317,13.952 C43.1083789,14.1033333 43.1745891,14.268 43.3150349,14.3446667 C45.3528375,15.4586667 47.4695572,16 49.7855763,16 L49.8002897,16 C53.0626464,15.9973333 56.0989521,14.6066667 58.348761,12.0853333 C60.3885699,9.8 61.4506082,6.90266667 61.2158629,4.294 C61.7669457,3.906 62.6256719,3.15466667 63.1506719,2.34666667 C63.232933,2.22066667 63.220226,2.05466667 63.1192387,1.94266667" id="Fill-44"></path>
                </g>
            </g>
        </g>
    </g>
</svg>