<?xml version="1.0" encoding="UTF-8"?>
<svg width="17px" height="16px" viewBox="0 0 17 16" version="1.1" xmlns="http://www.w3.org/2000/svg" xmlns:xlink="http://www.w3.org/1999/xlink">
    <!-- Generator: sketchtool 50.2 (55047) - http://www.bohemiancoding.com/sketch -->
    <title>31569640-3A4A-489A-8757-925B2D0EDF76</title>
    <desc>Created with sketchtool.</desc>
    <defs></defs>
    <g id="Page-1" stroke="none" stroke-width="1" fill="none" fill-rule="evenodd">
        <g id="Desafio-Front" transform="translate(-1243.000000, -771.000000)" fill="#9B9B9B">
            <g id="footer" transform="translate(374.000000, 750.000000)">
                <g id="Group-3" transform="translate(779.000000, 21.000000)">
                    <g id="Group" transform="translate(90.294642, 0.000000)">
                        <path d="M14.8162665,12 C14.8162665,13.5267692 13.5698481,14.7692308 12.0382166,14.7692308 L4.01273885,14.7692308 C2.4811073,14.7692308 1.23468888,13.5267692 1.23468888,12 L1.23468888,4 C1.23468888,2.47323077 2.4811073,1.23076923 4.01273885,1.23076923 L12.0382166,1.23076923 C13.5698481,1.23076923 14.8162665,2.47323077 14.8162665,4 L14.8162665,12 Z M12.0382166,0 L4.01273885,0 C1.80017638,0 0,1.79446154 0,4 L0,12 C0,14.2055385 1.80017638,16 4.01273885,16 L12.0382166,16 C14.250779,16 16.0509554,14.2055385 16.0509554,12 L16.0509554,4 C16.0509554,1.79446154 14.250779,0 12.0382166,0 Z" id="Fill-22"></path>
                        <path d="M8.01189613,11.0904615 C6.30246938,11.0904615 4.9122097,9.704 4.9122097,8 C4.9122097,6.296 6.30246938,4.90953846 8.01189613,4.90953846 C9.72132288,4.90953846 11.1121999,6.296 11.1121999,8 C11.1121999,9.704 9.72132288,11.0904615 8.01189613,11.0904615 M8.01189613,3.67876923 C5.62153846,3.67876923 3.67752082,5.61723077 3.67752082,8 C3.67752082,10.3827692 5.62153846,12.3212308 8.01189613,12.3212308 C10.4022538,12.3212308 12.3468888,10.3827692 12.3468888,8 C12.3468888,5.61723077 10.4022538,3.67876923 8.01189613,3.67876923" id="Fill-24"></path>
                    </g>
                </g>
            </g>
        </g>
    </g>
</svg>