<?xml version="1.0" encoding="UTF-8"?>
<svg width="16px" height="16px" viewBox="0 0 16 16" version="1.1" xmlns="http://www.w3.org/2000/svg" xmlns:xlink="http://www.w3.org/1999/xlink">
    <!-- Generator: sketchtool 50.2 (55047) - http://www.bohemiancoding.com/sketch -->
    <title>AE1E6B13-D5C6-49D4-9503-DD3F477A53D1</title>
    <desc>Created with sketchtool.</desc>
    <defs></defs>
    <g id="Page-1" stroke="none" stroke-width="1" fill="none" fill-rule="evenodd">
        <g id="Desafio-Front" transform="translate(-1192.000000, -25.000000)">
            <g id="topbar-desktop" transform="translate(293.000000, 0.000000)">
                <g id="Group-4" transform="translate(895.000000, 12.000000)">
                    <g id="ic_person" transform="translate(0.000000, 9.000000)">
                        <polygon id="Bounds" points="0 0 24 0 24 24 0 24"></polygon>
                        <path d="M12,12 C14.21,12 16,10.21 16,8 C16,5.79 14.21,4 12,4 C9.79,4 8,5.79 8,8 C8,10.21 9.79,12 12,12 L12,12 Z M12,14 C9.33,14 4,15.34 4,18 L4,20 L20,20 L20,18 C20,15.34 14.67,14 12,14 L12,14 Z" id="Icon" fill="#9B9B9B"></path>
                    </g>
                </g>
            </g>
        </g>
    </g>
</svg>