<?xml version="1.0" encoding="UTF-8"?>
<svg width="109px" height="37px" viewBox="0 0 109 37" version="1.1" xmlns="http://www.w3.org/2000/svg" xmlns:xlink="http://www.w3.org/1999/xlink">
    <!-- Generator: sketchtool 50.2 (55047) - http://www.bohemiancoding.com/sketch -->
    <title>2717E738-8A8E-40A7-B801-8AF1FC651554</title>
    <desc>Created with sketchtool.</desc>
    <defs></defs>
    <g id="Page-1" stroke="none" stroke-width="1" fill="none" fill-rule="evenodd">
        <g id="Desafio-Front" transform="translate(-92.000000, -14.000000)" fill="#FFFFFF" fill-rule="nonzero">
            <g id="menu">
                <g id="logo_atlas_horizontal-white" transform="translate(92.000000, 14.000000)">
                    <path d="M54.5342995,23.1245222 L47.0553945,23.1245222 L46.0479871,26.334073 L41.0109501,26.334073 L47.8657005,5.89956268 L53.7349436,5.89956268 L60.589694,26.334073 L55.552657,26.334073 L54.5342995,23.1245222 Z M53.1545894,18.7488716 L50.789372,11.2414102 L48.4241546,18.7488716 L53.1545894,18.7488716 Z" id="Shape"></path>
                    <path d="M67.6305958,15.9391264 L67.6305958,21.1032826 C67.6305958,22.3582281 68.6927536,22.4803909 70.5980676,22.3582281 L70.5980676,26.3229673 C64.9587762,26.91157 63.3162641,25.1901846 63.3162641,21.1032826 L63.3162641,15.9391264 L61.0167472,15.9391264 L61.0167472,11.7411673 L63.3162641,11.7411673 L63.3162641,8.96473923 L67.6305958,7.6542652 L67.6305958,11.7411673 L70.5980676,11.7411673 L70.5980676,15.9391264 L67.6305958,15.9391264 Z" id="Shape"></path>
                    <polygon id="Shape" points="72.4595813 5.02221142 76.773913 5.02221142 76.773913 26.334073 72.4595813 26.334073"></polygon>
                    <path d="M94.7101449,11.7411673 L94.7101449,26.334073 L90.3958132,26.334073 L90.3958132,24.9569647 C89.4431562,26.0675359 88.0305958,26.7338786 86.1033816,26.7338786 C82.3365539,26.7338786 79.2267311,23.3799536 79.2267311,19.0265144 C79.2267311,14.6730753 82.3365539,11.3191502 86.1033816,11.3191502 C88.0305958,11.3191502 89.4431562,11.9854929 90.3958132,13.0960641 L90.3958132,11.7189558 L94.7101449,11.7189558 L94.7101449,11.7411673 Z M90.3958132,19.0376201 C90.3958132,16.8497948 88.9613527,15.4726865 86.968438,15.4726865 C84.9755233,15.4726865 83.5410628,16.8497948 83.5410628,19.0376201 C83.5410628,21.2254454 84.9755233,22.6025537 86.968438,22.6025537 C88.9613527,22.6025537 90.3958132,21.2254454 90.3958132,19.0376201 Z" id="Shape"></path>
                    <path d="M108.901449,21.9584224 C108.901449,25.3123475 106.021578,26.7449843 102.911755,26.7449843 C100.031884,26.7449843 97.841868,25.6344131 96.7249597,23.2688964 L100.469887,21.1143883 C100.84219,22.2249595 101.652496,22.8357737 102.911755,22.8357737 C103.952013,22.8357737 104.466667,22.513708 104.466667,21.936211 C104.466667,20.3258827 97.3819646,21.1810226 97.3819646,16.1279236 C97.3819646,12.9516899 100.031884,11.3413616 103.021256,11.3413616 C105.353623,11.3413616 107.423188,12.3964043 108.638647,14.4620667 L104.95942,16.4722006 C104.554267,15.7170122 103.984863,15.183938 103.032206,15.183938 C102.287601,15.183938 101.827697,15.4726865 101.827697,16.0057607 C101.816747,17.6605118 108.901449,16.5610463 108.901449,21.9584224 Z" id="Shape"></path>
                    <path d="M2.30073931,18.0460642 C4.08778839,18.0569774 5.87483747,18.0460642 7.66188654,18.0569774 C7.67319698,15.7979507 8.06906228,13.5716635 8.51016933,11.3562895 C7.02850206,11.3672026 5.54683479,11.3781158 4.07647795,11.3453763 C2.95674467,13.4079659 2.41384369,15.7324716 2.30073931,18.0460642 M5.38848867,9.13000227 C6.67787851,9.16274179 7.96726835,9.17365496 9.25665819,9.13000227 C9.94659486,7.15471804 10.9871551,5.31039189 12.2652345,3.64067649 C9.55072956,4.87386498 7.14160643,6.76184383 5.38848867,9.13000227 M20.4087493,2.30926944 C20.3635075,4.5901225 20.4200597,6.86006238 20.3861284,9.14091544 C22.5124906,9.14091544 24.6501632,9.14091544 26.7765254,9.14091544 C25.5776191,6.27075107 23.6435343,3.2805418 20.4087493,2.30926944 M11.6431604,9.13000227 C13.7808331,9.15182861 15.9185057,9.14091544 18.0561783,9.14091544 C18.0561783,6.86006238 18.0787992,4.57920933 18.0448679,2.29835627 C14.7987724,3.2805418 12.8646877,6.27075107 11.6431604,9.13000227 M15.7940909,0.301245698 C20.6801998,-0.582721276 25.8830009,0.508595976 30,3.18232324 C29.9095165,4.01172436 29.7737913,4.81929912 29.5588929,5.62687389 C28.5070223,4.86295181 27.3759786,4.20816146 26.1996931,3.66250283 C27.1610803,4.95025719 27.9980526,6.32531693 28.6653684,7.77676887 C27.8623274,9.10817592 26.7878358,10.2649722 25.6567921,11.3453763 C23.9036744,11.3672026 22.1505566,11.3453763 20.3974388,11.3562895 C20.3861284,12.6767833 20.3974388,13.986364 20.3861284,15.2959447 C19.6057082,15.8306902 18.8252881,16.3763488 18.0448679,16.9220074 C18.0335575,15.0667681 18.0674888,13.2115288 18.022247,11.3453763 C15.6470552,11.3562895 13.2831738,11.3562895 10.907982,11.3453763 C10.2632871,13.5280108 9.98052617,15.7979507 9.91266355,18.0569774 C12.072957,18.0569774 14.244561,18.035151 16.4048545,18.0678906 C15.4434673,18.7990731 14.4820802,19.5193425 13.5546243,20.2832646 C12.3444075,20.2723514 11.1455012,20.2723514 9.93528442,20.2941778 C10.0370784,21.2436238 10.2067349,22.1930698 10.2519767,23.153429 C9.76562786,23.9500906 9.01913901,24.5721414 8.44230671,25.3142371 C8.05775185,23.6554349 7.82023267,21.9748063 7.67319698,20.2832646 C5.92007922,20.2832646 4.15565101,20.2832646 2.40253325,20.2832646 C2.59481068,22.2258093 3.18295342,24.1137881 4.07647795,25.8489826 C4.25744495,26.1218119 4.33661801,26.5255993 4.67593113,26.6565573 C5.5807661,26.7220364 6.48560108,26.6783837 7.39043605,26.6783837 C6.4629802,28.0534434 5.61469741,29.483069 4.95869206,31 C1.85963226,27.649656 -0.0179003096,23.218908 0.00472056483,18.7117677 C-0.0970733699,14.48837 1.45245653,10.2867986 4.16696145,6.99102045 C7.05112294,3.50971842 11.2586056,1.06516777 15.7940909,0.301245698" id="Shape"></path>
                    <path d="M28.3551275,9.41383661 C29.5040695,7.8260719 30.1934346,5.94060131 30.4779345,4 C33.6840297,6.83371896 35.9819135,10.7369739 36.7041056,14.9930654 C37.798336,20.9141046 35.8068367,27.2872157 31.5721649,31.521255 C31.287665,30.7935295 31.035992,30.0547778 31.035992,29.2608955 C30.926569,26.84617 32.4584916,24.7512027 32.5132031,22.3475033 C31.8566649,25.1481438 29.6791463,27.2431112 28.9350696,29.9996471 C28.5739736,31.2014968 28.7709351,32.4584772 29.0335504,33.671353 C27.7095316,34.5424184 26.3089166,35.3142484 24.8098209,35.8545295 C24.667571,34.4652354 24.6894556,33.0318367 25.1599747,31.6976733 C26.4621089,27.6400523 29.4821848,24.4755491 31.2220112,20.6274249 C31.681588,19.6240458 31.9660879,18.5545098 32.0864532,17.4629216 C31.5721649,18.9183726 30.8499729,20.3186929 29.8323386,21.4874641 C27.5891662,24.1337386 24.7660517,26.2507582 22.7854947,29.1175556 C21.1550913,31.3889412 20.2249955,34.1454772 20.1483993,36.9461177 C18.660246,37.0343269 17.1720926,37.0343269 15.7058238,36.7917517 C16.1325737,34.3108694 17.007958,31.90717 18.2991499,29.7460458 C20.5094954,26.0302353 23.6718213,23.0421504 26.538705,19.866621 C29.0444927,17.0770066 31.4955688,13.7691634 31.5283957,9.84385622 C31.0907036,11.3875164 30.423223,12.8760458 29.4384156,14.1550785 C27.3484355,16.9005883 24.4268403,18.8081111 21.7131489,20.8589739 C18.5945922,23.1524118 15.5854585,25.7215033 13.4298246,28.9852419 C12.1386327,30.8927648 11.1647676,32.9987582 10.4644601,35.1929609 C8.83405679,34.4431831 7.34590342,33.3956994 6,32.215902 C7.20365346,29.1947386 8.98724905,26.4271765 11.2413637,24.089634 C14.1410743,20.9582092 17.6754386,18.5545098 21.1003798,16.0626013 C23.7155905,14.122 26.4402243,12.1372941 28.3551275,9.41383661" id="Shape"></path>
                    <path d="M45.6847826,35.3846154 C45.2065217,35.7252747 44.6195652,35.9230769 43.9565217,35.9230769 C42.2173913,35.9230769 41,34.5934066 41,32.978022 L41,32.967033 C41,31.3516484 42.2282609,30 43.9673913,30 C45.7065217,30 46.923913,31.3296703 46.923913,32.9450549 L46.923913,32.956044 C46.923913,33.6043956 46.7173913,34.2197802 46.3478261,34.7142857 L47,35.2747253 L46.3586957,36 L45.6847826,35.3846154 Z M44.9456522,34.7252747 L43.9782609,33.8901099 L44.6195652,33.1538462 L45.5978261,34.0549451 C45.7934783,33.7472527 45.8913043,33.3846154 45.8913043,32.978022 L45.8913043,32.967033 C45.8913043,31.8571429 45.0869565,30.9340659 43.9673913,30.9340659 C42.8478261,30.9340659 42.0543478,31.8461538 42.0543478,32.956044 L42.0543478,32.967033 C42.0543478,34.0769231 42.8586957,35 43.9782609,35 C44.3478261,35 44.6847826,34.8901099 44.9456522,34.7252747 Z" id="Shape"></path>
                    <path d="M52,33.3962264 L52,30 L53.0290828,30 L53.0290828,33.3509434 C53.0290828,34.4490566 53.5883669,35.0377358 54.5055928,35.0377358 C55.4116331,35.0377358 55.9709172,34.4830189 55.9709172,33.3962264 L55.9709172,30 L57,30 L57,33.3509434 C57,35.1169811 56.01566,36 54.4944072,36 C52.9619687,35.9886792 52,35.1056604 52,33.3962264 Z" id="Shape"></path>
                    <path d="M64.5367647,30 L65.4742647,30 L68,36 L66.9301471,36 L66.3455882,34.56 L63.6323529,34.56 L63.0367647,36 L62,36 L64.5367647,30 Z M65.9816176,33.6342857 L64.9889706,31.2571429 L64.0073529,33.6342857 L65.9816176,33.6342857 Z" id="Shape"></path>
                    <polygon id="Shape" points="73 30 73.9361233 30 77.0088106 34.137931 77.0088106 30 78 30 78 35.9885057 77.1519824 35.9885057 73.9911894 31.7356322 73.9911894 36 73 36"></polygon>
                    <polygon id="Shape" points="84.9503546 30.9788868 83 30.9788868 83 30 88 30 88 30.9788868 86.0496454 30.9788868 86.0496454 36 84.9621749 36 84.9621749 30.9788868"></polygon>
                    <path d="M93,33.3962264 L93,30 L94.0290828,30 L94.0290828,33.3509434 C94.0290828,34.4490566 94.5883669,35.0377358 95.5055928,35.0377358 C96.4116331,35.0377358 96.9709172,34.4830189 96.9709172,33.3962264 L96.9709172,30 L98,30 L98,33.3509434 C98,35.1169811 97.01566,36 95.4944072,36 C93.9619687,35.9886792 93,35.1056604 93,33.3962264 Z" id="Shape"></path>
                    <polygon id="Shape" points="103 30 104.143969 30 106 32.8330134 107.856031 30 109 30 109 36 107.92607 36 107.92607 31.6928983 106 34.5259117 105.964981 34.5259117 104.062257 31.7159309 104.062257 36 103.011673 36 103.011673 30"></polygon>
                </g>
            </g>
        </g>
    </g>
</svg>