<?xml version="1.0" encoding="UTF-8"?>
<svg width="529px" height="586px" viewBox="0 0 529 586" version="1.1" xmlns="http://www.w3.org/2000/svg" xmlns:xlink="http://www.w3.org/1999/xlink">
    <!-- Generator: sketchtool 50.2 (55047) - http://www.bohemiancoding.com/sketch -->
    <title>00432A03-EB09-4F8C-9327-3643F9713325</title>
    <desc>Created with sketchtool.</desc>
    <defs></defs>
    <g id="Page-1" stroke="none" stroke-width="1" fill="none" fill-rule="evenodd" fill-opacity="0.03">
        <g id="Desafio-Front" transform="translate(-911.000000, -225.000000)" fill="#000000" fill-rule="nonzero">
            <path d="M1433.38852,225 C1503.15294,285.781939 1552.34581,369.804031 1568.44529,460.976939 C1592.59451,587.903929 1548.76814,724.663291 1457.53774,815.836199 C1451.27683,800.640715 1445.91034,784.551378 1445.91034,767.568189 C1443.22709,715.724771 1477.21489,671.032169 1478.1093,619.18875 C1463.79865,679.076837 1416.39462,724.663291 1400.29513,783.657526 C1392.24539,809.579235 1396.71747,836.394796 1402.08397,862.316505 C1373.46266,881.087398 1343.05253,897.176735 1310.85356,908.796812 C1308.17032,879.299694 1308.17032,848.014873 1318.00889,819.411607 C1346.63019,732.707959 1411.92254,663.881352 1449.488,581.646964 C1459.32657,560.194515 1465.58748,536.954362 1468.27073,513.714209 C1457.53774,544.999031 1441.43826,575.39 1419.07786,600.417857 C1370.77942,657.624388 1309.95915,703.210842 1267.02719,764.886633 C1232.14498,814.048495 1211.57342,873.04273 1209.78459,932.930817 C1177.58562,934.718521 1145.38666,934.718521 1113.18769,929.355409 C1122.13185,875.724286 1141.80899,824.77472 1169.53588,778.294414 C1217.83433,698.741582 1285.80992,634.384235 1348.41902,566.45148 C1402.97838,506.563393 1455.74891,435.949082 1456.64332,351.033138 C1446.80475,384.105663 1432.4941,416.284337 1411.02812,443.99375 C1365.41292,502.987985 1302.80382,544.105179 1243.77239,587.903929 C1176.69121,637.065791 1111.39886,692.484618 1063.99483,762.205077 C1036.26794,803.322271 1014.80196,848.014873 999.596897,895.389031 C963.820268,879.299694 932.515718,856.953393 903,831.031684 C928.938056,765.780485 967.397931,706.78625 1016.5908,656.730536 C1079.19989,589.691633 1156.11965,537.848214 1230.35615,484.217092 C1287.59876,443.099898 1346.63019,400.195 1387.77331,341.200765 C1412.81695,307.234388 1427.12761,267.011046 1433.38852,225 Z" id="Shape"></path>
        </g>
    </g>
</svg>